# ProBuilder 4.5.2
# https://unity3d.com/unity/features/worldbuilding/probuilder
# 10/9/2024 7:58:15 AM

mtllib ./Desk.mtl
o Desk

g Desk
v -0.3999984 0.27 1
v -0.3999986 0.27 -1
v -0.3999986 0.33 -1
v -0.3999984 0.33 1
v 0.4000014 0.33 -1
v 0.4000016 0.33 1
v 0.4000014 0.27 -1
v 0.4000016 0.27 1
v -0.3199984 -0.3 0.85
v -0.3199986 -0.3 0.25
v -0.3199986 0.3 0.25
v -0.3199984 0.3 0.85
v 0.3200016 0.3 0.25
v 0.3200016 0.3 0.85
v 0.3200016 -0.3 0.25
v 0.3200016 -0.3 0.85
v -0.3199986 -0.3 -0.25
v -0.3199986 -0.3 -0.85
v -0.3199986 0.3 -0.85
v -0.3199986 0.3 -0.25
v 0.3200016 0.3 -0.85
v 0.3200018 0.3 -0.25
v 0.3200016 -0.3 -0.85
v 0.3200018 -0.3 -0.25

vt 1 0
vt 0 0
vt 0 1
vt 1 1

vn -1 0 1.043081E-07
vn 0 1 0
vn 1 0 -8.940697E-08
vn 0 -1 0
vn 0 0 1
vn 0 0 -1

usemtl Desk
f 4/4/1 3/3/1 2/2/1 1/1/1
f 6/4/2 5/3/2 3/2/2 4/1/2
f 8/4/3 7/3/3 5/2/3 6/1/3
f 1/4/4 2/3/4 7/2/4 8/1/4
f 6/4/5 4/3/5 1/2/5 8/1/5
f 3/4/6 5/3/6 7/2/6 2/1/6
f 12/4/1 11/3/1 10/2/1 9/1/1
f 14/4/2 13/3/2 11/2/2 12/1/2
f 16/4/3 15/3/3 13/2/3 14/1/3
f 14/4/5 12/3/5 9/2/5 16/1/5
f 11/4/6 13/3/6 15/2/6 10/1/6
f 20/4/1 19/3/1 18/2/1 17/1/1
f 22/4/2 21/3/2 19/2/2 20/1/2
f 24/4/3 23/3/3 21/2/3 22/1/3
f 22/4/5 20/3/5 17/2/5 24/1/5
f 19/4/6 21/3/6 23/2/6 18/1/6

